<svg width="80" height="80" viewBox="0 0 80 80" fill="none" xmlns="http://www.w3.org/2000/svg">
<path fill-rule="evenodd" clip-rule="evenodd" d="M7.5 16.6667C7.5 11.6041 11.6041 7.5 16.6667 7.5H63.3333C68.396 7.5 72.5 11.6041 72.5 16.6667V50C72.5 55.0627 68.396 59.1667 63.3333 59.1667H26.5375C25.2718 59.1667 24.0747 59.742 23.2839 60.7303L15.5139 70.4427C12.8567 73.7643 7.5 71.8857 7.5 67.6317V16.6667ZM40 20.8333C41.3807 20.8333 42.5 21.9526 42.5 23.3333V30C42.5 31.3807 41.3807 32.5 40 32.5C38.6193 32.5 37.5 31.3807 37.5 30V23.3333C37.5 21.9526 38.6193 20.8333 40 20.8333ZM41.8907 45.0033C42.815 43.9777 42.7327 42.397 41.7067 41.4727C40.681 40.5487 39.1 40.631 38.176 41.6567L38.1427 41.6937C37.2183 42.7197 37.3007 44.3003 38.3267 45.2243C39.3523 46.1487 40.9333 46.0663 41.8573 45.0403L41.8907 45.0033Z" fill="#555555"/>
</svg>
