<svg width="257" height="52" viewBox="0 0 257 52" fill="none" xmlns="http://www.w3.org/2000/svg">
<path d="M26.0449 51.0303C21.237 51.0303 17.0671 50.0049 13.5352 47.9541C10.026 45.9033 7.31445 42.9753 5.40039 39.1699C3.50911 35.3418 2.56348 30.7845 2.56348 25.498V25.4639C2.56348 20.1546 3.52051 15.6087 5.43457 11.8262C7.34863 8.02083 10.0602 5.10417 13.5693 3.07617C17.0785 1.02539 21.237 0 26.0449 0C30.0326 0 33.5872 0.77474 36.709 2.32422C39.8307 3.8737 42.3372 6.00423 44.2285 8.71582C46.1198 11.4046 47.2249 14.5036 47.5439 18.0127L47.5781 18.3203H37.5293L37.3926 17.7393C37.0052 15.9163 36.3102 14.3327 35.3076 12.9883C34.305 11.6439 33.0176 10.6071 31.4453 9.87793C29.8958 9.12598 28.0957 8.75 26.0449 8.75C23.4017 8.75 21.1117 9.4222 19.1748 10.7666C17.238 12.111 15.734 14.0365 14.6631 16.543C13.6149 19.0267 13.0908 21.9889 13.0908 25.4297V25.4639C13.0908 28.9274 13.6149 31.9238 14.6631 34.4531C15.734 36.9596 17.238 38.8965 19.1748 40.2637C21.1344 41.6081 23.4245 42.2803 26.0449 42.2803C28.0273 42.2803 29.7933 41.9157 31.3428 41.1865C32.915 40.4574 34.2253 39.4092 35.2734 38.042C36.3216 36.652 37.0622 34.9772 37.4951 33.0176L37.5635 32.6758H47.6123L47.5781 33.0518C47.2591 36.5381 46.1426 39.637 44.2285 42.3486C42.3372 45.0602 39.8307 47.1908 36.709 48.7402C33.5872 50.2669 30.0326 51.0303 26.0449 51.0303ZM59.6477 50.7568C57.2095 50.7568 55.0676 50.2897 53.2219 49.3555C51.3762 48.3984 49.9292 47.0882 48.8811 45.4248C47.8557 43.7386 47.343 41.8245 47.343 39.6826V39.6143C47.343 37.3812 47.9012 35.4785 49.0178 33.9062C50.1343 32.3112 51.7521 31.0579 53.8713 30.1465C55.9904 29.235 58.5653 28.6768 61.5959 28.4717L75.883 27.583V33.8037L63.0998 34.624C61.1857 34.738 59.7274 35.1937 58.7248 35.9912C57.7222 36.766 57.2209 37.8027 57.2209 39.1016V39.1699C57.2209 40.5143 57.7336 41.5739 58.759 42.3486C59.7844 43.1006 61.163 43.4766 62.8947 43.4766C64.3758 43.4766 65.6975 43.1917 66.8596 42.6221C68.0445 42.0296 68.9673 41.2321 69.6281 40.2295C70.3117 39.2041 70.6535 38.0534 70.6535 36.7773V25.6689C70.6535 24.0511 70.1408 22.7751 69.1154 21.8408C68.09 20.8838 66.5975 20.4053 64.6379 20.4053C62.7694 20.4053 61.2883 20.7926 60.1945 21.5674C59.1008 22.3421 58.4286 23.3219 58.1779 24.5068L58.1096 24.8145H48.9836L49.0178 24.4043C49.2001 22.1484 49.9406 20.1432 51.2395 18.3887C52.5611 16.6341 54.384 15.2669 56.7082 14.2871C59.0552 13.2845 61.8352 12.7832 65.048 12.7832C68.2154 12.7832 70.9611 13.2959 73.2854 14.3213C75.6096 15.3239 77.4097 16.748 78.6857 18.5938C79.9846 20.4395 80.634 22.5928 80.634 25.0537V50.1758H70.6535V44.707H70.4484C69.7648 45.9603 68.8762 47.0426 67.7824 47.9541C66.7115 48.8428 65.4924 49.5378 64.1252 50.0391C62.758 50.5176 61.2655 50.7568 59.6477 50.7568ZM82.8939 50.1758V13.5352H92.8744V19.9268H93.0795C93.6264 17.6709 94.6176 15.9163 96.0531 14.6631C97.4887 13.4098 99.2774 12.7832 101.419 12.7832C101.966 12.7832 102.49 12.8174 102.992 12.8857C103.493 12.9541 103.926 13.0452 104.29 13.1592V21.9434C103.88 21.7839 103.356 21.6585 102.718 21.5674C102.08 21.4535 101.397 21.3965 100.667 21.3965C99.0268 21.3965 97.6254 21.7155 96.4633 22.3535C95.3012 22.9915 94.4125 23.9258 93.7973 25.1562C93.182 26.3867 92.8744 27.8906 92.8744 29.668V50.1758H82.8939Z" fill="black"/>
<path d="M116.894 50.1758V9.36523H102.641V0.854492H141.503V9.36523H127.216V50.1758H116.894ZM133.236 50.1758L150.462 0.854492H159.554V10.4248H156.409L144.071 50.1758H133.236ZM142.498 38.2129L145.028 30.4883H168.03L170.56 38.2129H142.498ZM168.953 50.1758L156.614 10.4248V0.854492H162.596L179.788 50.1758H168.953ZM180.647 50.1758V0.854492H190.969V41.665H212.537V50.1758H180.647ZM224.367 35.5811V23.4131H225.016L243.097 0.854492H254.582L236.466 23.1396H234.45L224.367 35.5811ZM214.455 50.1758V0.854492H224.777V50.1758H214.455ZM243.507 50.1758L227.682 26.7969L235.133 20.0293L255.846 50.1758H243.507Z" fill="black"/>
</svg>
